<svg width="94" height="21" viewBox="0 0 94 21" fill="none" xmlns="http://www.w3.org/2000/svg">
<path d="M0 20.4H20V0.4H0V20.4ZM30.2734 19.2734C29.5052 19.2734 28.8184 19.1204 28.2129 18.8145C27.6139 18.502 27.1094 18.056 26.6992 17.4766C26.2956 16.8906 26.0026 16.1973 25.8203 15.3965L27.9004 14.9863C28.0827 15.7546 28.3757 16.3275 28.7793 16.7051C29.1829 17.0827 29.681 17.2715 30.2734 17.2715C30.7878 17.2715 31.2337 17.1445 31.6113 16.8906C31.9954 16.6302 32.2917 16.2656 32.5 15.7969C32.7148 15.3281 32.8223 14.778 32.8223 14.1465V4.85938H34.9609V14.1465C34.9609 15.1556 34.7656 16.0475 34.375 16.8223C33.9844 17.5905 33.4342 18.1927 32.7246 18.6289C32.015 19.0586 31.1979 19.2734 30.2734 19.2734ZM42.3145 19.2734C41.3444 19.2734 40.459 19.0423 39.6582 18.5801C38.8639 18.1178 38.2357 17.4798 37.7734 16.666C37.3177 15.8522 37.0898 14.9505 37.0898 13.9609C37.0898 12.9583 37.3177 12.0534 37.7734 11.2461C38.2357 10.4388 38.8639 9.80404 39.6582 9.3418C40.459 8.87956 41.3444 8.64844 42.3145 8.64844C43.2975 8.64844 44.1862 8.87956 44.9805 9.3418C45.7747 9.80404 46.3997 10.4388 46.8555 11.2461C47.3112 12.0534 47.5391 12.9583 47.5391 13.9609C47.5391 14.9505 47.3112 15.8522 46.8555 16.666C46.3997 17.4798 45.7747 18.1178 44.9805 18.5801C44.1862 19.0423 43.2975 19.2734 42.3145 19.2734ZM42.3145 17.3887C42.9329 17.3887 43.4863 17.2422 43.9746 16.9492C44.4694 16.6562 44.8503 16.2526 45.1172 15.7383C45.3906 15.2174 45.5273 14.625 45.5273 13.9609C45.5273 13.2969 45.3906 12.7077 45.1172 12.1934C44.8503 11.6725 44.4694 11.2656 43.9746 10.9727C43.4863 10.6797 42.9329 10.5332 42.3145 10.5332C41.696 10.5332 41.1426 10.6797 40.6543 10.9727C40.1725 11.2656 39.7917 11.6725 39.5117 12.1934C39.2383 12.7077 39.1016 13.2969 39.1016 13.9609C39.1016 14.625 39.2383 15.2174 39.5117 15.7383C39.7917 16.2526 40.1725 16.6562 40.6543 16.9492C41.1426 17.2422 41.696 17.3887 42.3145 17.3887ZM58.2422 19H56.2305V8.92188H58.2422V19ZM51.6016 14.7129C51.6016 15.5788 51.7806 16.2428 52.1387 16.7051C52.5033 17.1608 53.0208 17.3887 53.6914 17.3887C54.1471 17.3887 54.5671 17.278 54.9512 17.0566C55.3353 16.8288 55.6445 16.4902 55.8789 16.041C56.1133 15.5853 56.2305 15.0221 56.2305 14.3516L56.4844 16.0215V17.5254H55.918L56.4844 16.0215C56.4844 16.6595 56.3411 17.2259 56.0547 17.7207C55.7747 18.209 55.3776 18.5898 54.8633 18.8633C54.3555 19.1367 53.7728 19.2734 53.1152 19.2734C52.3665 19.2734 51.7285 19.1042 51.2012 18.7656C50.6738 18.4271 50.2734 17.9421 50 17.3105C49.7266 16.6725 49.5898 15.9108 49.5898 15.0254V8.92188H51.6016V14.7129ZM60.7812 8.92188H62.793V19H60.7812V8.92188ZM62.4707 12.2715V10.4551H63.1055L62.4707 12.2715C62.4707 11.6009 62.6074 10.9889 62.8809 10.4355C63.1543 9.88216 63.5189 9.44596 63.9746 9.12695C64.4368 8.80794 64.9479 8.64844 65.5078 8.64844C65.8594 8.64844 66.2012 8.71354 66.5332 8.84375V10.8066C66.1621 10.6895 65.7878 10.6309 65.4102 10.6309C64.8568 10.6309 64.3848 10.7676 63.9941 11.041C63.61 11.3079 63.3138 11.7051 63.1055 12.2324C62.8971 12.7533 62.793 13.3848 62.793 14.127L62.4707 12.2715ZM68.6133 8.92188H70.625V19H68.6133V8.92188ZM75.2539 13.209C75.2539 12.3431 75.0716 11.6823 74.707 11.2266C74.349 10.7643 73.8346 10.5332 73.1641 10.5332C72.7083 10.5332 72.2884 10.6471 71.9043 10.875C71.5202 11.0964 71.2109 11.4349 70.9766 11.8906C70.7422 12.3398 70.625 12.8997 70.625 13.5703L70.3711 11.9004V10.3965H70.9375L70.3711 11.9004C70.3711 11.2624 70.5111 10.6992 70.791 10.2109C71.0775 9.71615 71.4746 9.33203 71.9824 9.05859C72.4967 8.78516 73.0827 8.64844 73.7402 8.64844C74.4889 8.64844 75.127 8.81771 75.6543 9.15625C76.1816 9.49479 76.582 9.98307 76.8555 10.6211C77.1289 11.2526 77.2656 12.0111 77.2656 12.8965V19H75.2539V13.209ZM88.0371 13.9609C88.0371 15.1003 87.8809 16.0671 87.5684 16.8613C87.2624 17.6556 86.8132 18.2578 86.2207 18.668C85.6348 19.0716 84.9251 19.2734 84.0918 19.2734C83.1868 19.2734 82.3698 19.0423 81.6406 18.5801C80.918 18.1178 80.3483 17.4798 79.9316 16.666C79.5215 15.8522 79.3164 14.9505 79.3164 13.9609C79.3164 12.9583 79.5215 12.0534 79.9316 11.2461C80.3483 10.4388 80.918 9.80404 81.6406 9.3418C82.3698 8.87956 83.1868 8.64844 84.0918 8.64844C84.9251 8.64844 85.6348 8.85352 86.2207 9.26367C86.8132 9.66732 87.2624 10.2663 87.5684 11.0605C87.8809 11.8548 88.0371 12.8216 88.0371 13.9609L87.041 10.4355H88.2715V17.4863H87.041L88.0371 13.9609ZM84.4043 17.3887C84.9902 17.3887 85.5111 17.2422 85.9668 16.9492C86.429 16.6562 86.7871 16.2526 87.041 15.7383C87.3014 15.2174 87.4316 14.625 87.4316 13.9609C87.4316 13.2969 87.3014 12.7077 87.041 12.1934C86.7871 11.6725 86.429 11.2656 85.9668 10.9727C85.5111 10.6797 84.9902 10.5332 84.4043 10.5332C83.8118 10.5332 83.2878 10.6797 82.832 10.9727C82.3763 11.2656 82.0182 11.6725 81.7578 12.1934C81.4974 12.7077 81.3672 13.2969 81.3672 13.9609C81.3672 14.612 81.4974 15.2012 81.7578 15.7285C82.0182 16.2493 82.3763 16.6562 82.832 16.9492C83.2878 17.2422 83.8118 17.3887 84.4043 17.3887ZM87.3535 19V16.9688L87.7832 13.9609L87.3535 11.2852V8.92188H89.375V19H87.3535ZM91.9141 4.85938H93.9258V19H91.9141V4.85938Z" fill="white"/>
</svg>
